SCREENSHOTS:
 
http://lnk.co/GQXNS
 
http://lnk.co/GQXNV

Video
ID                               : 1
Format                           : AVC
Format/Info                      : Advanced Video Codec
Format profile                   : Baseline@L2.1
Format settings, CABAC           : No
Format settings, ReFrames        : 2 frames
Codec ID                         : avc1
Codec ID/Info                    : Advanced Video Coding
Duration                         : 2h 3mn
Bit rate mode                    : Variable
Bit rate                         : 365 Kbps
Width                            : 372 pixels
Height                           : 272 pixels
Display aspect ratio             : 4:3
Frame rate mode                  : Variable
Frame rate                       : 23.976 fps
Minimum frame rate               : 23.974 fps
Maximum frame rate               : 23.981 fps
Color space                      : YUV
Chroma subsampling               : 4:2:0
Bit depth                        : 8 bits
Scan type                        : Progressive
Bits/(Pixel*Frame)               : 0.150
Stream size                      : 324 MiB (85%)
Writing library                  : x264 core 112

Audio
ID                               : 2
Format                           : AAC
Format/Info                      : Advanced Audio Codec
Format profile                   : LC
Codec ID                         : 40
Duration                         : 2h 3mn
Bit rate mode                    : Variable
Bit rate                         : 60.4 Kbps
Maximum bit rate                 : 82.7 Kbps
Channel(s)                       : 2 channels
Channel positions                : Front: L R
Sampling rate                    : 44.1 KHz
Compression mode                 : Lossy
Stream size                      : 53.6 MiB (14%)
Language                         : English

encoded for iPod,PSP,Zune and other handheld devices...:)